<svg width="120" height="120" viewBox="0 0 120 120" fill="none" xmlns="http://www.w3.org/2000/svg">
  <rect width="120" height="120" rx="12" fill="#0E1420"/>
  <!-- CoinAnk official brand mark, scaled to fit 120x120 with padding -->
  <!-- Original mark viewBox: 0 0 214.516 197.965, scaled to ~90x83 centered -->
  <g transform="translate(15, 19) scale(0.42)">
    <path d="M131.886 0C150.317 6.59718e-05 165.258 14.9412 165.258 33.3721V48.3643C169.981 45.8027 175.393 44.3477 181.144 44.3477C199.574 44.3478 214.516 59.2889 214.516 77.7197V150.664C214.516 169.095 199.574 184.036 181.144 184.036C162.713 184.036 147.772 169.095 147.771 150.664V146.713L147.771 33.3721C147.77 24.5994 140.658 17.4874 131.886 17.4873C123.113 17.4873 116.001 24.5993 116.001 33.3721V40.4121H116.048V164.593C116.048 183.024 101.107 197.965 82.6758 197.965C64.2448 197.965 49.3037 183.024 49.3037 164.593V151.415C44.5694 153.992 39.1416 155.456 33.3721 155.456C14.9412 155.456 0 140.515 0 122.084V33.3721C6.33987e-05 14.9412 14.9412 8.43329e-05 33.3721 0C51.8029 6.59718e-05 66.7441 14.9412 66.7441 33.3721V40.4121H66.791V164.593C66.791 173.366 73.903 180.478 82.6758 180.478C91.4485 180.477 98.5605 173.366 98.5605 164.593V146.713H98.5137V33.3721C98.5137 14.9412 113.455 1.83613e-05 131.886 0ZM181.144 61.835C172.371 61.835 165.259 68.947 165.259 77.7197V150.664C165.259 159.437 172.371 166.549 181.144 166.549C189.916 166.549 197.028 159.437 197.028 150.664V77.7197C197.028 68.9471 189.916 61.8351 181.144 61.835ZM33.3721 17.4873C24.5993 17.4874 17.4874 24.5994 17.4873 33.3721V122.084C17.4873 130.857 24.5993 137.969 33.3721 137.969C42.1449 137.969 49.2568 130.857 49.2568 122.084V33.3721C49.2568 24.5994 42.1448 17.4874 33.3721 17.4873Z" fill="#FFFFFF"/>
  </g>
</svg>
